<svg xmlns="http://www.w3.org/2000/svg" xmlns:xlink="http://www.w3.org/1999/xlink" contentStyleType="text/css" height="334.5px" preserveAspectRatio="none" style="width:784px;height:334px;background:#FFFFFF;" version="1.1" viewBox="0 0 784 334" width="784px" zoomAndPan="magnify"><defs/><g><!--class Estado--><g id="elem_Estado"><rect codeLine="3" fill="#F1F1F1" height="42.6211" id="Estado" rx="1.25" ry="1.25" style="stroke:#181818;stroke-width:0.25;" width="48.0137" x="6.75" y="40.75"/><ellipse cx="18.8493" cy="48.75" fill="#EB937F" rx="5.5" ry="5.5" style="stroke:#181818;stroke-width:0.5;"/><path d="M18.279,49.1484 L18.279,50.3984 L20.4431,50.3984 L20.4431,49.9375 Q20.4431,49.6328 20.5603,49.5 Q20.6853,49.3672 20.8728,49.3672 Q21.0603,49.3672 21.1774,49.5 Q21.2946,49.6328 21.2946,49.9375 L21.2946,51.25 L17.2946,51.25 Q16.9821,51.25 16.8493,51.1328 Q16.7243,51.0156 16.7243,50.8203 Q16.7243,50.6328 16.8571,50.5156 Q16.9899,50.3984 17.2946,50.3984 L17.4274,50.3984 L17.4274,47.0703 L17.2946,47.0703 Q16.9821,47.0703 16.8493,46.9531 Q16.7243,46.8359 16.7243,46.6406 Q16.7243,46.4531 16.8493,46.3359 Q16.9821,46.2188 17.2946,46.2188 L21.1071,46.2188 L21.1071,47.5156 Q21.1071,47.8203 20.9899,47.9531 Q20.8806,48.0781 20.6853,48.0781 Q20.4978,48.0781 20.3806,47.9531 Q20.2634,47.8203 20.2634,47.5156 L20.2634,47.0703 L18.279,47.0703 L18.279,48.2969 L19.0212,48.2969 Q19.0212,47.9688 19.0837,47.875 Q19.2165,47.6719 19.4509,47.6719 Q19.6384,47.6719 19.7556,47.8047 Q19.8728,47.9297 19.8728,48.2344 L19.8728,49.2188 Q19.8728,49.4922 19.8103,49.5859 Q19.6774,49.7813 19.4509,49.7813 Q19.2165,49.7813 19.0837,49.5781 Q19.0212,49.4844 19.0212,49.1484 L18.279,49.1484 Z " fill="#000000"/><text fill="#000000" font-family="sans-serif" font-size="7" lengthAdjust="spacing" textLength="21.793" x="26.8714" y="51.6484">Estado</text><line style="stroke:#181818;stroke-width:0.25;" x1="7.25" x2="54.2637" y1="56.75" y2="56.75"/><text fill="#000000" font-family="sans-serif" font-size="7" lengthAdjust="spacing" textLength="42.0137" x="9.75" y="66.3037">DISPONIBLE</text><text fill="#000000" font-family="sans-serif" font-size="7" lengthAdjust="spacing" textLength="31.8931" x="9.75" y="75.6143">VENDIDO</text><line style="stroke:#181818;stroke-width:0.25;" x1="7.25" x2="54.2637" y1="79.3711" y2="79.3711"/></g><!--class TipoCombustible--><g id="elem_TipoCombustible"><rect codeLine="8" fill="#F1F1F1" height="61.2422" id="TipoCombustible" rx="1.25" ry="1.25" style="stroke:#181818;stroke-width:0.25;" width="68.5239" x="72.5" y="31.5"/><ellipse cx="80" cy="39.5" fill="#EB937F" rx="5.5" ry="5.5" style="stroke:#181818;stroke-width:0.5;"/><path d="M79.4297,39.8984 L79.4297,41.1484 L81.5938,41.1484 L81.5938,40.6875 Q81.5938,40.3828 81.7109,40.25 Q81.8359,40.1172 82.0234,40.1172 Q82.2109,40.1172 82.3281,40.25 Q82.4453,40.3828 82.4453,40.6875 L82.4453,42 L78.4453,42 Q78.1328,42 78,41.8828 Q77.875,41.7656 77.875,41.5703 Q77.875,41.3828 78.0078,41.2656 Q78.1406,41.1484 78.4453,41.1484 L78.5781,41.1484 L78.5781,37.8203 L78.4453,37.8203 Q78.1328,37.8203 78,37.7031 Q77.875,37.5859 77.875,37.3906 Q77.875,37.2031 78,37.0859 Q78.1328,36.9688 78.4453,36.9688 L82.2578,36.9688 L82.2578,38.2656 Q82.2578,38.5703 82.1406,38.7031 Q82.0313,38.8281 81.8359,38.8281 Q81.6484,38.8281 81.5313,38.7031 Q81.4141,38.5703 81.4141,38.2656 L81.4141,37.8203 L79.4297,37.8203 L79.4297,39.0469 L80.1719,39.0469 Q80.1719,38.7188 80.2344,38.625 Q80.3672,38.4219 80.6016,38.4219 Q80.7891,38.4219 80.9063,38.5547 Q81.0234,38.6797 81.0234,38.9844 L81.0234,39.9688 Q81.0234,40.2422 80.9609,40.3359 Q80.8281,40.5313 80.6016,40.5313 Q80.3672,40.5313 80.2344,40.3281 Q80.1719,40.2344 80.1719,39.8984 L79.4297,39.8984 Z " fill="#000000"/><text fill="#000000" font-family="sans-serif" font-size="7" lengthAdjust="spacing" textLength="52.5239" x="87" y="42.3984">TipoCombustible</text><line style="stroke:#181818;stroke-width:0.25;" x1="73" x2="140.5239" y1="47.5" y2="47.5"/><text fill="#000000" font-family="sans-serif" font-size="7" lengthAdjust="spacing" textLength="35.7896" x="75.5" y="57.0537">GASOLINA</text><text fill="#000000" font-family="sans-serif" font-size="7" lengthAdjust="spacing" textLength="24.8999" x="75.5" y="66.3643">DIESEL</text><text fill="#000000" font-family="sans-serif" font-size="7" lengthAdjust="spacing" textLength="29.1689" x="75.5" y="75.6748">HIBRIDO</text><text fill="#000000" font-family="sans-serif" font-size="7" lengthAdjust="spacing" textLength="40.062" x="75.5" y="84.9854">ELECTRICO</text><line style="stroke:#181818;stroke-width:0.25;" x1="73" x2="140.5239" y1="88.7422" y2="88.7422"/></g><!--class Traccion--><g id="elem_Traccion"><rect codeLine="15" fill="#F1F1F1" height="42.6211" id="Traccion" rx="1.25" ry="1.25" style="stroke:#181818;stroke-width:0.25;" width="53.4619" x="158.5" y="40.75"/><ellipse cx="170.7793" cy="48.75" fill="#EB937F" rx="5.5" ry="5.5" style="stroke:#181818;stroke-width:0.5;"/><path d="M170.209,49.1484 L170.209,50.3984 L172.373,50.3984 L172.373,49.9375 Q172.373,49.6328 172.4902,49.5 Q172.6152,49.3672 172.8027,49.3672 Q172.9902,49.3672 173.1074,49.5 Q173.2246,49.6328 173.2246,49.9375 L173.2246,51.25 L169.2246,51.25 Q168.9121,51.25 168.7793,51.1328 Q168.6543,51.0156 168.6543,50.8203 Q168.6543,50.6328 168.7871,50.5156 Q168.9199,50.3984 169.2246,50.3984 L169.3574,50.3984 L169.3574,47.0703 L169.2246,47.0703 Q168.9121,47.0703 168.7793,46.9531 Q168.6543,46.8359 168.6543,46.6406 Q168.6543,46.4531 168.7793,46.3359 Q168.9121,46.2188 169.2246,46.2188 L173.0371,46.2188 L173.0371,47.5156 Q173.0371,47.8203 172.9199,47.9531 Q172.8105,48.0781 172.6152,48.0781 Q172.4277,48.0781 172.3105,47.9531 Q172.1933,47.8203 172.1933,47.5156 L172.1933,47.0703 L170.209,47.0703 L170.209,48.2969 L170.9511,48.2969 Q170.9511,47.9688 171.0136,47.875 Q171.1465,47.6719 171.3808,47.6719 Q171.5683,47.6719 171.6855,47.8047 Q171.8027,47.9297 171.8027,48.2344 L171.8027,49.2188 Q171.8027,49.4922 171.7402,49.5859 Q171.6074,49.7813 171.3808,49.7813 Q171.1465,49.7813 171.0136,49.5781 Q170.9511,49.4844 170.9511,49.1484 L170.209,49.1484 Z " fill="#000000"/><text fill="#000000" font-family="sans-serif" font-size="7" lengthAdjust="spacing" textLength="26.8413" x="178.8413" y="51.6484">Traccion</text><line style="stroke:#181818;stroke-width:0.25;" x1="159" x2="211.4619" y1="56.75" y2="56.75"/><text fill="#000000" font-family="sans-serif" font-size="7" lengthAdjust="spacing" textLength="42.0103" x="161.5" y="66.3037">DELANTERA</text><text fill="#000000" font-family="sans-serif" font-size="7" lengthAdjust="spacing" textLength="47.4619" x="161.5" y="75.6143">TRASERA 4X4</text><line style="stroke:#181818;stroke-width:0.25;" x1="159" x2="211.4619" y1="79.3711" y2="79.3711"/></g><!--class NivelConfort--><g id="elem_NivelConfort"><rect codeLine="20" fill="#F1F1F1" height="51.9316" id="NivelConfort" rx="1.25" ry="1.25" style="stroke:#181818;stroke-width:0.25;" width="54.5137" x="3.5" y="178.5"/><ellipse cx="11" cy="186.5" fill="#EB937F" rx="5.5" ry="5.5" style="stroke:#181818;stroke-width:0.5;"/><path d="M10.4297,186.8984 L10.4297,188.1484 L12.5938,188.1484 L12.5938,187.6875 Q12.5938,187.3828 12.7109,187.25 Q12.8359,187.1172 13.0234,187.1172 Q13.2109,187.1172 13.3281,187.25 Q13.4453,187.3828 13.4453,187.6875 L13.4453,189 L9.4453,189 Q9.1328,189 9,188.8828 Q8.875,188.7656 8.875,188.5703 Q8.875,188.3828 9.0078,188.2656 Q9.1406,188.1484 9.4453,188.1484 L9.5781,188.1484 L9.5781,184.8203 L9.4453,184.8203 Q9.1328,184.8203 9,184.7031 Q8.875,184.5859 8.875,184.3906 Q8.875,184.2031 9,184.0859 Q9.1328,183.9688 9.4453,183.9688 L13.2578,183.9688 L13.2578,185.2656 Q13.2578,185.5703 13.1406,185.7031 Q13.0313,185.8281 12.8359,185.8281 Q12.6484,185.8281 12.5313,185.7031 Q12.4141,185.5703 12.4141,185.2656 L12.4141,184.8203 L10.4297,184.8203 L10.4297,186.0469 L11.1719,186.0469 Q11.1719,185.7188 11.2344,185.625 Q11.3672,185.4219 11.6016,185.4219 Q11.7891,185.4219 11.9063,185.5547 Q12.0234,185.6797 12.0234,185.9844 L12.0234,186.9688 Q12.0234,187.2422 11.9609,187.3359 Q11.8281,187.5313 11.6016,187.5313 Q11.3672,187.5313 11.2344,187.3281 Q11.1719,187.2344 11.1719,186.8984 L10.4297,186.8984 Z " fill="#000000"/><text fill="#000000" font-family="sans-serif" font-size="7" lengthAdjust="spacing" textLength="38.5137" x="18" y="189.3984">NivelConfort</text><line style="stroke:#181818;stroke-width:0.25;" x1="4" x2="57.5137" y1="194.5" y2="194.5"/><text fill="#000000" font-family="sans-serif" font-size="7" lengthAdjust="spacing" textLength="26.4517" x="6.5" y="204.0537">BASICO</text><text fill="#000000" font-family="sans-serif" font-size="7" lengthAdjust="spacing" textLength="22.9448" x="6.5" y="213.3643">MEDIO</text><text fill="#000000" font-family="sans-serif" font-size="7" lengthAdjust="spacing" textLength="33.0552" x="6.5" y="222.6748">PREMIUM</text><line style="stroke:#181818;stroke-width:0.25;" x1="4" x2="57.5137" y1="226.4316" y2="226.4316"/></g><!--class TipoTransmision--><g id="elem_TipoTransmision"><rect codeLine="26" fill="#F1F1F1" height="42.6211" id="TipoTransmision" rx="1.25" ry="1.25" style="stroke:#181818;stroke-width:0.25;" width="67.7378" x="75.5" y="183.25"/><ellipse cx="83" cy="191.25" fill="#EB937F" rx="5.5" ry="5.5" style="stroke:#181818;stroke-width:0.5;"/><path d="M82.4297,191.6484 L82.4297,192.8984 L84.5938,192.8984 L84.5938,192.4375 Q84.5938,192.1328 84.7109,192 Q84.8359,191.8672 85.0234,191.8672 Q85.2109,191.8672 85.3281,192 Q85.4453,192.1328 85.4453,192.4375 L85.4453,193.75 L81.4453,193.75 Q81.1328,193.75 81,193.6328 Q80.875,193.5156 80.875,193.3203 Q80.875,193.1328 81.0078,193.0156 Q81.1406,192.8984 81.4453,192.8984 L81.5781,192.8984 L81.5781,189.5703 L81.4453,189.5703 Q81.1328,189.5703 81,189.4531 Q80.875,189.3359 80.875,189.1406 Q80.875,188.9531 81,188.8359 Q81.1328,188.7188 81.4453,188.7188 L85.2578,188.7188 L85.2578,190.0156 Q85.2578,190.3203 85.1406,190.4531 Q85.0313,190.5781 84.8359,190.5781 Q84.6484,190.5781 84.5313,190.4531 Q84.4141,190.3203 84.4141,190.0156 L84.4141,189.5703 L82.4297,189.5703 L82.4297,190.7969 L83.1719,190.7969 Q83.1719,190.4688 83.2344,190.375 Q83.3672,190.1719 83.6016,190.1719 Q83.7891,190.1719 83.9063,190.3047 Q84.0234,190.4297 84.0234,190.7344 L84.0234,191.7188 Q84.0234,191.9922 83.9609,192.0859 Q83.8281,192.2813 83.6016,192.2813 Q83.3672,192.2813 83.2344,192.0781 Q83.1719,191.9844 83.1719,191.6484 L82.4297,191.6484 Z " fill="#000000"/><text fill="#000000" font-family="sans-serif" font-size="7" lengthAdjust="spacing" textLength="51.7378" x="90" y="194.1484">TipoTransmision</text><line style="stroke:#181818;stroke-width:0.25;" x1="76" x2="142.7378" y1="199.25" y2="199.25"/><text fill="#000000" font-family="sans-serif" font-size="7" lengthAdjust="spacing" textLength="29.1724" x="78.5" y="208.8037">MANUAL</text><text fill="#000000" font-family="sans-serif" font-size="7" lengthAdjust="spacing" textLength="45.8896" x="78.5" y="218.1143">AUTOMATICA</text><line style="stroke:#181818;stroke-width:0.25;" x1="76" x2="142.7378" y1="221.8711" y2="221.8711"/></g><!--class Valorable--><g id="elem_Valorable"><rect codeLine="32" fill="#F1F1F1" height="33.3105" id="Valorable" rx="1.25" ry="1.25" style="stroke:#181818;stroke-width:0.25;" width="105.603" x="160.5" y="187.75"/><ellipse cx="196.3887" cy="195.75" fill="#B4A7E5" rx="5.5" ry="5.5" style="stroke:#181818;stroke-width:0.5;"/><path d="M196.8652,194.0703 L196.8652,197.3984 L197.7246,197.3984 Q198.0293,197.3984 198.1621,197.5156 Q198.2949,197.6328 198.2949,197.8281 Q198.2949,198.0156 198.1621,198.1328 Q198.0293,198.25 197.7246,198.25 L195.1543,198.25 Q194.8496,198.25 194.7168,198.1328 Q194.584,198.0156 194.584,197.8203 Q194.584,197.6328 194.7168,197.5156 Q194.8496,197.3984 195.1543,197.3984 L196.0137,197.3984 L196.0137,194.0703 L195.1543,194.0703 Q194.8496,194.0703 194.7168,193.9531 Q194.584,193.8359 194.584,193.6406 Q194.584,193.4531 194.7168,193.3359 Q194.8496,193.2188 195.1543,193.2188 L197.7246,193.2188 Q198.0293,193.2188 198.1621,193.3359 Q198.2949,193.4531 198.2949,193.6406 Q198.2949,193.8359 198.1621,193.9531 Q198.0293,194.0703 197.7246,194.0703 L196.8652,194.0703 Z " fill="#000000"/><text fill="#000000" font-family="sans-serif" font-size="7" font-style="italic" lengthAdjust="spacing" textLength="29.5757" x="206.6387" y="198.6484">Valorable</text><line style="stroke:#181818;stroke-width:0.25;" x1="161" x2="265.603" y1="203.75" y2="203.75"/><line style="stroke:#181818;stroke-width:0.25;" x1="161" x2="265.603" y1="207.75" y2="207.75"/><ellipse cx="166" cy="215.1553" fill="#84BE84" rx="1.5" ry="1.5" style="stroke:#038048;stroke-width:0.5;"/><text fill="#000000" font-family="sans-serif" font-size="7" lengthAdjust="spacing" textLength="92.603" x="170.5" y="217.3037">double calcularDepreciacion()</text></g><!--class Persona--><g id="elem_Persona"><rect codeLine="37" fill="#F1F1F1" height="89.1738" id="Persona" rx="1.25" ry="1.25" style="stroke:#181818;stroke-width:0.25;" width="118.0684" x="283.75" y="160"/><ellipse cx="327.623" cy="168" fill="#ADD1B2" rx="5.5" ry="5.5" style="stroke:#181818;stroke-width:0.5;"/><path d="M329.0059,165.9375 Q329.084,165.8281 329.1777,165.7734 Q329.2715,165.7188 329.3809,165.7188 Q329.5684,165.7188 329.6855,165.8516 Q329.8027,165.9766 329.8027,166.2813 L329.8027,167.0078 Q329.8027,167.3125 329.6855,167.4453 Q329.5684,167.5781 329.3809,167.5781 Q329.209,167.5781 329.1074,167.4766 Q329.0059,167.3828 328.9512,167.125 Q328.9277,166.9453 328.834,166.8516 Q328.6699,166.6641 328.3652,166.5547 Q328.0605,166.4453 327.748,166.4453 Q327.3652,166.4453 327.0449,166.6094 Q326.7324,166.7734 326.4824,167.1484 Q326.2402,167.5234 326.2402,168.0391 L326.2402,168.5859 Q326.2402,169.2031 326.6855,169.6172 Q327.1309,170.0234 327.9277,170.0234 Q328.3965,170.0234 328.7246,169.8984 Q328.9199,169.8203 329.1309,169.6016 Q329.2637,169.4688 329.334,169.4297 Q329.4121,169.3906 329.5137,169.3906 Q329.6777,169.3906 329.8027,169.5234 Q329.9355,169.6484 329.9355,169.8203 Q329.9355,169.9922 329.7637,170.1953 Q329.5137,170.4844 329.1152,170.6484 Q328.5762,170.875 327.9277,170.875 Q327.1699,170.875 326.5684,170.5625 Q326.0762,170.3125 325.7324,169.7813 Q325.3887,169.2422 325.3887,168.6016 L325.3887,168.0234 Q325.3887,167.3594 325.6934,166.7891 Q326.0059,166.2109 326.5527,165.9063 Q327.0996,165.5938 327.7168,165.5938 Q328.084,165.5938 328.4043,165.6797 Q328.7324,165.7578 329.0059,165.9375 Z " fill="#000000"/><text fill="#000000" font-family="sans-serif" font-size="7" lengthAdjust="spacing" textLength="26.0723" x="337.873" y="170.8984">Persona</text><line style="stroke:#181818;stroke-width:0.25;" x1="284.25" x2="401.3184" y1="176" y2="176"/><rect fill="none" height="3" style="stroke:#C82930;stroke-width:0.5;" width="3" x="287.75" y="181.9053"/><text fill="#000000" font-family="sans-serif" font-size="7" lengthAdjust="spacing" textLength="43.9653" x="293.75" y="185.5537">String nombre</text><rect fill="none" height="3" style="stroke:#C82930;stroke-width:0.5;" width="3" x="287.75" y="191.2158"/><text fill="#000000" font-family="sans-serif" font-size="7" lengthAdjust="spacing" textLength="47.8618" x="293.75" y="194.8643">String apellidos</text><rect fill="none" height="3" style="stroke:#C82930;stroke-width:0.5;" width="3" x="287.75" y="200.5264"/><text fill="#000000" font-family="sans-serif" font-size="7" lengthAdjust="spacing" textLength="29.5723" x="293.75" y="204.1748">String dni</text><rect fill="none" height="3" style="stroke:#C82930;stroke-width:0.5;" width="3" x="287.75" y="209.8369"/><text fill="#000000" font-family="sans-serif" font-size="7" lengthAdjust="spacing" textLength="57.5859" x="293.75" y="213.4854">int anioNacimiento</text><rect fill="none" height="3" style="stroke:#C82930;stroke-width:0.5;" width="3" x="287.75" y="219.1475"/><text fill="#000000" font-family="sans-serif" font-size="7" lengthAdjust="spacing" textLength="105.0684" x="293.75" y="222.7959">LocalDate fechaCaducidadCarnet</text><line style="stroke:#181818;stroke-width:0.25;" x1="284.25" x2="401.3184" y1="226.5527" y2="226.5527"/><ellipse cx="289.25" cy="233.958" fill="#84BE84" rx="1.5" ry="1.5" style="stroke:#038048;stroke-width:0.5;"/><text fill="#000000" font-family="sans-serif" font-size="7" lengthAdjust="spacing" textLength="64.1963" x="293.75" y="236.1064">boolean validarDNI()</text><ellipse cx="289.25" cy="243.2686" fill="#84BE84" rx="1.5" ry="1.5" style="stroke:#038048;stroke-width:0.5;"/><text fill="#000000" font-family="sans-serif" font-size="7" lengthAdjust="spacing" textLength="76.6411" x="293.75" y="245.417">int calcularAniosCarnet()</text></g><!--class Vehiculo--><g id="elem_Vehiculo"><rect codeLine="49" fill="#F1F1F1" height="117.1055" id="Vehiculo" rx="1.25" ry="1.25" style="stroke:#181818;stroke-width:0.25;" width="83.8032" x="436.25" y="3.5"/><ellipse cx="462.6008" cy="11.5" fill="#A9DCDF" rx="5.5" ry="5.5" style="stroke:#181818;stroke-width:0.5;"/><path d="M463.6946,12.3828 L461.6243,12.3828 L461.4133,12.8984 L461.6243,12.8984 Q461.929,12.8984 462.0618,13.0156 Q462.1946,13.1328 462.1946,13.3281 Q462.1946,13.5156 462.0618,13.6328 Q461.929,13.75 461.6243,13.75 L460.4758,13.75 Q460.1711,13.75 460.0461,13.6328 Q459.9133,13.5156 459.9133,13.3203 Q459.9133,13.1328 460.054,13.0156 Q460.1868,12.8906 460.4993,12.8984 L461.8352,9.5703 L461.2805,9.5703 Q460.9758,9.5703 460.843,9.4531 Q460.7102,9.3359 460.7102,9.1406 Q460.7102,8.9531 460.843,8.8359 Q460.9758,8.7188 461.2805,8.7188 L463.1165,8.7188 L464.8118,12.8984 Q465.1086,12.8984 465.2024,12.9688 Q465.3977,13.1016 465.3977,13.3281 Q465.3977,13.5156 465.2649,13.6328 Q465.1399,13.75 464.8352,13.75 L463.6868,13.75 Q463.3821,13.75 463.2493,13.6328 Q463.1165,13.5156 463.1165,13.3203 Q463.1165,13.1328 463.2493,13.0156 Q463.3821,12.8984 463.6868,12.8984 L463.8977,12.8984 L463.6946,12.3828 Z M463.3352,11.5313 L462.6555,9.8438 L461.968,11.5313 L463.3352,11.5313 Z " fill="#000000"/><text fill="#000000" font-family="sans-serif" font-size="7" font-style="italic" lengthAdjust="spacing" textLength="26.8516" x="472.8508" y="14.3984">Vehiculo</text><line style="stroke:#181818;stroke-width:0.25;" x1="436.75" x2="519.5532" y1="19.5" y2="19.5"/><rect fill="none" height="3" style="stroke:#C82930;stroke-width:0.5;" width="3" x="440.25" y="25.4053"/><text fill="#000000" font-family="sans-serif" font-size="7" lengthAdjust="spacing" textLength="48.6274" x="446.25" y="29.0537">String matricula</text><rect fill="none" height="3" style="stroke:#C82930;stroke-width:0.5;" width="3" x="440.25" y="34.7158"/><text fill="#000000" font-family="sans-serif" font-size="7" lengthAdjust="spacing" textLength="39.6792" x="446.25" y="38.3643">String marca</text><rect fill="none" height="3" style="stroke:#C82930;stroke-width:0.5;" width="3" x="440.25" y="44.0264"/><text fill="#000000" font-family="sans-serif" font-size="7" lengthAdjust="spacing" textLength="43.1895" x="446.25" y="47.6748">String modelo</text><rect fill="none" height="3" style="stroke:#C82930;stroke-width:0.5;" width="3" x="440.25" y="53.3369"/><text fill="#000000" font-family="sans-serif" font-size="7" lengthAdjust="spacing" textLength="58.7549" x="446.25" y="56.9854">int anioFabricacion</text><rect fill="none" height="3" style="stroke:#C82930;stroke-width:0.5;" width="3" x="440.25" y="62.6475"/><text fill="#000000" font-family="sans-serif" font-size="7" lengthAdjust="spacing" textLength="43.1826" x="446.25" y="66.2959">int kilometraje</text><rect fill="none" height="3" style="stroke:#C82930;stroke-width:0.5;" width="3" x="440.25" y="71.958"/><text fill="#000000" font-family="sans-serif" font-size="7" lengthAdjust="spacing" textLength="42.0308" x="446.25" y="75.6064">double precio</text><rect fill="none" height="3" style="stroke:#C82930;stroke-width:0.5;" width="3" x="440.25" y="81.2686"/><text fill="#000000" font-family="sans-serif" font-size="7" lengthAdjust="spacing" textLength="44.7549" x="446.25" y="84.917">Estado estado</text><rect fill="none" height="3" style="stroke:#C82930;stroke-width:0.5;" width="3" x="440.25" y="90.5791"/><text fill="#000000" font-family="sans-serif" font-size="7" lengthAdjust="spacing" textLength="61.0928" x="446.25" y="94.2275">Persona propietario</text><line style="stroke:#181818;stroke-width:0.25;" x1="436.75" x2="519.5532" y1="97.9844" y2="97.9844"/><ellipse cx="441.75" cy="105.3896" fill="#84BE84" rx="1.5" ry="1.5" style="stroke:#038048;stroke-width:0.5;"/><text fill="#000000" font-family="sans-serif" font-size="7" lengthAdjust="spacing" textLength="68.062" x="446.25" y="107.5381">String imprimirDatos()</text><ellipse cx="441.75" cy="114.7002" fill="#84BE84" rx="1.5" ry="1.5" style="stroke:#038048;stroke-width:0.5;"/><text fill="#000000" font-family="sans-serif" font-size="7" lengthAdjust="spacing" textLength="70.8032" x="446.25" y="116.8486">String calcularRiesgo()</text></g><!--class Coche--><g id="elem_Coche"><rect codeLine="64" fill="#F1F1F1" height="61.2422" id="Coche" rx="1.25" ry="1.25" style="stroke:#181818;stroke-width:0.25;" width="117.6616" x="419.5" y="174"/><ellipse cx="466.0886" cy="182" fill="#ADD1B2" rx="5.5" ry="5.5" style="stroke:#181818;stroke-width:0.5;"/><path d="M467.4714,179.9375 Q467.5496,179.8281 467.6433,179.7734 Q467.7371,179.7188 467.8464,179.7188 Q468.0339,179.7188 468.1511,179.8516 Q468.2683,179.9766 468.2683,180.2813 L468.2683,181.0078 Q468.2683,181.3125 468.1511,181.4453 Q468.0339,181.5781 467.8464,181.5781 Q467.6746,181.5781 467.573,181.4766 Q467.4714,181.3828 467.4167,181.125 Q467.3933,180.9453 467.2996,180.8516 Q467.1355,180.6641 466.8308,180.5547 Q466.5261,180.4453 466.2136,180.4453 Q465.8308,180.4453 465.5105,180.6094 Q465.198,180.7734 464.948,181.1484 Q464.7058,181.5234 464.7058,182.0391 L464.7058,182.5859 Q464.7058,183.2031 465.1511,183.6172 Q465.5964,184.0234 466.3933,184.0234 Q466.8621,184.0234 467.1902,183.8984 Q467.3855,183.8203 467.5964,183.6016 Q467.7292,183.4688 467.7996,183.4297 Q467.8777,183.3906 467.9792,183.3906 Q468.1433,183.3906 468.2683,183.5234 Q468.4011,183.6484 468.4011,183.8203 Q468.4011,183.9922 468.2292,184.1953 Q467.9792,184.4844 467.5808,184.6484 Q467.0417,184.875 466.3933,184.875 Q465.6355,184.875 465.0339,184.5625 Q464.5417,184.3125 464.198,183.7813 Q463.8542,183.2422 463.8542,182.6016 L463.8542,182.0234 Q463.8542,181.3594 464.1589,180.7891 Q464.4714,180.2109 465.0183,179.9063 Q465.5652,179.5938 466.1824,179.5938 Q466.5496,179.5938 466.8699,179.6797 Q467.198,179.7578 467.4714,179.9375 Z " fill="#000000"/><text fill="#000000" font-family="sans-serif" font-size="7" lengthAdjust="spacing" textLength="20.2344" x="476.3386" y="184.8984">Coche</text><line style="stroke:#181818;stroke-width:0.25;" x1="420" x2="536.6616" y1="190" y2="190"/><rect fill="none" height="3" style="stroke:#C82930;stroke-width:0.5;" width="3" x="423.5" y="195.9053"/><text fill="#000000" font-family="sans-serif" font-size="7" lengthAdjust="spacing" textLength="47.0791" x="429.5" y="199.5537">int numPuertas</text><rect fill="none" height="3" style="stroke:#C82930;stroke-width:0.5;" width="3" x="423.5" y="205.2158"/><text fill="#000000" font-family="sans-serif" font-size="7" lengthAdjust="spacing" textLength="104.6616" x="429.5" y="208.8643">TipoCombustible tipoCombustible</text><rect fill="none" height="3" style="stroke:#C82930;stroke-width:0.5;" width="3" x="423.5" y="214.5264"/><text fill="#000000" font-family="sans-serif" font-size="7" lengthAdjust="spacing" textLength="68.4858" x="429.5" y="218.1748">int capacidadMaletero</text><rect fill="none" height="3" style="stroke:#C82930;stroke-width:0.5;" width="3" x="423.5" y="223.8369"/><text fill="#000000" font-family="sans-serif" font-size="7" lengthAdjust="spacing" textLength="53.2964" x="429.5" y="227.4854">Traccion traccion</text><line style="stroke:#181818;stroke-width:0.25;" x1="420" x2="536.6616" y1="231.2422" y2="231.2422"/></g><!--class Sedan--><g id="elem_Sedan"><rect codeLine="72" fill="#F1F1F1" height="42.6211" id="Sedan" rx="1.25" ry="1.25" style="stroke:#181818;stroke-width:0.25;" width="90.8101" x="241.25" y="284.25"/><ellipse cx="274.4094" cy="292.25" fill="#ADD1B2" rx="5.5" ry="5.5" style="stroke:#181818;stroke-width:0.5;"/><path d="M275.7922,290.1875 Q275.8704,290.0781 275.9641,290.0234 Q276.0579,289.9688 276.1672,289.9688 Q276.3547,289.9688 276.4719,290.1016 Q276.5891,290.2266 276.5891,290.5313 L276.5891,291.2578 Q276.5891,291.5625 276.4719,291.6953 Q276.3547,291.8281 276.1672,291.8281 Q275.9954,291.8281 275.8938,291.7266 Q275.7922,291.6328 275.7375,291.375 Q275.7141,291.1953 275.6204,291.1016 Q275.4563,290.9141 275.1516,290.8047 Q274.8469,290.6953 274.5344,290.6953 Q274.1516,290.6953 273.8313,290.8594 Q273.5188,291.0234 273.2688,291.3984 Q273.0266,291.7734 273.0266,292.2891 L273.0266,292.8359 Q273.0266,293.4531 273.4719,293.8672 Q273.9172,294.2734 274.7141,294.2734 Q275.1829,294.2734 275.511,294.1484 Q275.7063,294.0703 275.9172,293.8516 Q276.05,293.7188 276.1204,293.6797 Q276.1985,293.6406 276.3,293.6406 Q276.4641,293.6406 276.5891,293.7734 Q276.7219,293.8984 276.7219,294.0703 Q276.7219,294.2422 276.55,294.4453 Q276.3,294.7344 275.9016,294.8984 Q275.3625,295.125 274.7141,295.125 Q273.9563,295.125 273.3547,294.8125 Q272.8625,294.5625 272.5188,294.0313 Q272.175,293.4922 272.175,292.8516 L272.175,292.2734 Q272.175,291.6094 272.4797,291.0391 Q272.7922,290.4609 273.3391,290.1563 Q273.886,289.8438 274.5032,289.8438 Q274.8704,289.8438 275.1907,289.9297 Q275.5188,290.0078 275.7922,290.1875 Z " fill="#000000"/><text fill="#000000" font-family="sans-serif" font-size="7" lengthAdjust="spacing" textLength="20.2412" x="284.6594" y="295.1484">Sedan</text><line style="stroke:#181818;stroke-width:0.25;" x1="241.75" x2="331.5601" y1="300.25" y2="300.25"/><rect fill="none" height="3" style="stroke:#C82930;stroke-width:0.5;" width="3" x="245.25" y="306.1553"/><text fill="#000000" font-family="sans-serif" font-size="7" lengthAdjust="spacing" textLength="68.8789" x="251.25" y="309.8037">double espacioInterior</text><rect fill="none" height="3" style="stroke:#C82930;stroke-width:0.5;" width="3" x="245.25" y="315.4658"/><text fill="#000000" font-family="sans-serif" font-size="7" lengthAdjust="spacing" textLength="77.8101" x="251.25" y="319.1143">NivelConfort nivelConfort</text><line style="stroke:#181818;stroke-width:0.25;" x1="241.75" x2="331.5601" y1="322.8711" y2="322.8711"/></g><!--class SUV--><g id="elem_SUV"><rect codeLine="77" fill="#F1F1F1" height="42.6211" id="SUV" rx="1.25" ry="1.25" style="stroke:#181818;stroke-width:0.25;" width="95.1167" x="349.75" y="284.25"/><ellipse cx="387.9868" cy="292.25" fill="#ADD1B2" rx="5.5" ry="5.5" style="stroke:#181818;stroke-width:0.5;"/><path d="M389.3696,290.1875 Q389.4478,290.0781 389.5415,290.0234 Q389.6353,289.9688 389.7446,289.9688 Q389.9321,289.9688 390.0493,290.1016 Q390.1665,290.2266 390.1665,290.5313 L390.1665,291.2578 Q390.1665,291.5625 390.0493,291.6953 Q389.9321,291.8281 389.7446,291.8281 Q389.5728,291.8281 389.4712,291.7266 Q389.3696,291.6328 389.3149,291.375 Q389.2915,291.1953 389.1978,291.1016 Q389.0337,290.9141 388.729,290.8047 Q388.4243,290.6953 388.1118,290.6953 Q387.729,290.6953 387.4087,290.8594 Q387.0962,291.0234 386.8462,291.3984 Q386.604,291.7734 386.604,292.2891 L386.604,292.8359 Q386.604,293.4531 387.0493,293.8672 Q387.4946,294.2734 388.2915,294.2734 Q388.7603,294.2734 389.0884,294.1484 Q389.2837,294.0703 389.4946,293.8516 Q389.6274,293.7188 389.6978,293.6797 Q389.7759,293.6406 389.8774,293.6406 Q390.0415,293.6406 390.1665,293.7734 Q390.2993,293.8984 390.2993,294.0703 Q390.2993,294.2422 390.1274,294.4453 Q389.8774,294.7344 389.479,294.8984 Q388.9399,295.125 388.2915,295.125 Q387.5337,295.125 386.9321,294.8125 Q386.4399,294.5625 386.0962,294.0313 Q385.7524,293.4922 385.7524,292.8516 L385.7524,292.2734 Q385.7524,291.6094 386.0571,291.0391 Q386.3696,290.4609 386.9165,290.1563 Q387.4634,289.8438 388.0806,289.8438 Q388.4478,289.8438 388.7681,289.9297 Q389.0962,290.0078 389.3696,290.1875 Z " fill="#000000"/><text fill="#000000" font-family="sans-serif" font-size="7" lengthAdjust="spacing" textLength="14.3931" x="398.2368" y="295.1484">SUV</text><line style="stroke:#181818;stroke-width:0.25;" x1="350.25" x2="444.3667" y1="300.25" y2="300.25"/><rect fill="none" height="3" style="stroke:#C82930;stroke-width:0.5;" width="3" x="353.75" y="306.1553"/><text fill="#000000" font-family="sans-serif" font-size="7" lengthAdjust="spacing" textLength="82.1167" x="359.75" y="309.8037">boolean capacidadOffroad</text><rect fill="none" height="3" style="stroke:#C82930;stroke-width:0.5;" width="3" x="353.75" y="315.4658"/><text fill="#000000" font-family="sans-serif" font-size="7" lengthAdjust="spacing" textLength="73.9443" x="359.75" y="319.1143">double alturaLibreSuelo</text><line style="stroke:#181818;stroke-width:0.25;" x1="350.25" x2="444.3667" y1="322.8711" y2="322.8711"/></g><!--class Deportivo--><g id="elem_Deportivo"><rect codeLine="82" fill="#F1F1F1" height="51.9316" id="Deportivo" rx="1.25" ry="1.25" style="stroke:#181818;stroke-width:0.25;" width="91.2305" x="462.25" y="279.5"/><ellipse cx="490.761" cy="287.5" fill="#ADD1B2" rx="5.5" ry="5.5" style="stroke:#181818;stroke-width:0.5;"/><path d="M492.1438,285.4375 Q492.2219,285.3281 492.3157,285.2734 Q492.4094,285.2188 492.5188,285.2188 Q492.7063,285.2188 492.8235,285.3516 Q492.9407,285.4766 492.9407,285.7813 L492.9407,286.5078 Q492.9407,286.8125 492.8235,286.9453 Q492.7063,287.0781 492.5188,287.0781 Q492.3469,287.0781 492.2454,286.9766 Q492.1438,286.8828 492.0891,286.625 Q492.0657,286.4453 491.9719,286.3516 Q491.8079,286.1641 491.5032,286.0547 Q491.1985,285.9453 490.886,285.9453 Q490.5032,285.9453 490.1829,286.1094 Q489.8704,286.2734 489.6204,286.6484 Q489.3782,287.0234 489.3782,287.5391 L489.3782,288.0859 Q489.3782,288.7031 489.8235,289.1172 Q490.2688,289.5234 491.0657,289.5234 Q491.5344,289.5234 491.8625,289.3984 Q492.0579,289.3203 492.2688,289.1016 Q492.4016,288.9688 492.4719,288.9297 Q492.55,288.8906 492.6516,288.8906 Q492.8157,288.8906 492.9407,289.0234 Q493.0735,289.1484 493.0735,289.3203 Q493.0735,289.4922 492.9016,289.6953 Q492.6516,289.9844 492.2532,290.1484 Q491.7141,290.375 491.0657,290.375 Q490.3079,290.375 489.7063,290.0625 Q489.2141,289.8125 488.8704,289.2813 Q488.5266,288.7422 488.5266,288.1016 L488.5266,287.5234 Q488.5266,286.8594 488.8313,286.2891 Q489.1438,285.7109 489.6907,285.4063 Q490.2375,285.0938 490.8547,285.0938 Q491.2219,285.0938 491.5422,285.1797 Q491.8704,285.2578 492.1438,285.4375 Z " fill="#000000"/><text fill="#000000" font-family="sans-serif" font-size="7" lengthAdjust="spacing" textLength="29.9585" x="501.011" y="290.3984">Deportivo</text><line style="stroke:#181818;stroke-width:0.25;" x1="462.75" x2="552.9805" y1="295.5" y2="295.5"/><rect fill="none" height="3" style="stroke:#C82930;stroke-width:0.5;" width="3" x="466.25" y="301.4053"/><text fill="#000000" font-family="sans-serif" font-size="7" lengthAdjust="spacing" textLength="78.2305" x="472.25" y="305.0537">double aceleracion0a100</text><rect fill="none" height="3" style="stroke:#C82930;stroke-width:0.5;" width="3" x="466.25" y="310.7158"/><text fill="#000000" font-family="sans-serif" font-size="7" lengthAdjust="spacing" textLength="45.5273" x="472.25" y="314.3643">int potenciaCV</text><rect fill="none" height="3" style="stroke:#C82930;stroke-width:0.5;" width="3" x="466.25" y="320.0264"/><text fill="#000000" font-family="sans-serif" font-size="7" lengthAdjust="spacing" textLength="75.1099" x="472.25" y="323.6748">boolean tieneModoPista</text><line style="stroke:#181818;stroke-width:0.25;" x1="462.75" x2="552.9805" y1="327.4316" y2="327.4316"/></g><!--class Moto--><g id="elem_Moto"><rect codeLine="89" fill="#F1F1F1" height="61.2422" id="Moto" rx="1.25" ry="1.25" style="stroke:#181818;stroke-width:0.25;" width="116.0894" x="554.75" y="174"/><ellipse cx="602.8887" cy="182" fill="#ADD1B2" rx="5.5" ry="5.5" style="stroke:#181818;stroke-width:0.5;"/><path d="M604.2715,179.9375 Q604.3496,179.8281 604.4434,179.7734 Q604.5371,179.7188 604.6465,179.7188 Q604.834,179.7188 604.9512,179.8516 Q605.0684,179.9766 605.0684,180.2813 L605.0684,181.0078 Q605.0684,181.3125 604.9512,181.4453 Q604.834,181.5781 604.6465,181.5781 Q604.4746,181.5781 604.373,181.4766 Q604.2715,181.3828 604.2168,181.125 Q604.1934,180.9453 604.0996,180.8516 Q603.9355,180.6641 603.6309,180.5547 Q603.3262,180.4453 603.0137,180.4453 Q602.6309,180.4453 602.3105,180.6094 Q601.998,180.7734 601.748,181.1484 Q601.5059,181.5234 601.5059,182.0391 L601.5059,182.5859 Q601.5059,183.2031 601.9512,183.6172 Q602.3965,184.0234 603.1934,184.0234 Q603.6621,184.0234 603.9902,183.8984 Q604.1855,183.8203 604.3965,183.6016 Q604.5293,183.4688 604.5996,183.4297 Q604.6777,183.3906 604.7793,183.3906 Q604.9434,183.3906 605.0684,183.5234 Q605.2012,183.6484 605.2012,183.8203 Q605.2012,183.9922 605.0293,184.1953 Q604.7793,184.4844 604.3809,184.6484 Q603.8418,184.875 603.1934,184.875 Q602.4355,184.875 601.834,184.5625 Q601.3418,184.3125 600.998,183.7813 Q600.6543,183.2422 600.6543,182.6016 L600.6543,182.0234 Q600.6543,181.3594 600.959,180.7891 Q601.2715,180.2109 601.8184,179.9063 Q602.3652,179.5938 602.9824,179.5938 Q603.3496,179.5938 603.6699,179.6797 Q603.998,179.7578 604.2715,179.9375 Z " fill="#000000"/><text fill="#000000" font-family="sans-serif" font-size="7" lengthAdjust="spacing" textLength="15.562" x="613.1387" y="184.8984">Moto</text><line style="stroke:#181818;stroke-width:0.25;" x1="555.25" x2="670.3394" y1="190" y2="190"/><rect fill="none" height="3" style="stroke:#C82930;stroke-width:0.5;" width="3" x="558.75" y="195.9053"/><text fill="#000000" font-family="sans-serif" font-size="7" lengthAdjust="spacing" textLength="39.2998" x="564.75" y="199.5537">int cilindrada</text><rect fill="none" height="3" style="stroke:#C82930;stroke-width:0.5;" width="3" x="558.75" y="205.2158"/><text fill="#000000" font-family="sans-serif" font-size="7" lengthAdjust="spacing" textLength="24.5171" x="564.75" y="208.8643">int peso</text><rect fill="none" height="3" style="stroke:#C82930;stroke-width:0.5;" width="3" x="558.75" y="214.5264"/><text fill="#000000" font-family="sans-serif" font-size="7" lengthAdjust="spacing" textLength="63.8237" x="564.75" y="218.1748">double alturaAsiento</text><rect fill="none" height="3" style="stroke:#C82930;stroke-width:0.5;" width="3" x="558.75" y="223.8369"/><text fill="#000000" font-family="sans-serif" font-size="7" lengthAdjust="spacing" textLength="103.0894" x="564.75" y="227.4854">TipoTransmision tipoTransmision</text><line style="stroke:#181818;stroke-width:0.25;" x1="555.25" x2="670.3394" y1="231.2422" y2="231.2422"/></g><!--class Scooter--><g id="elem_Scooter"><rect codeLine="96" fill="#F1F1F1" height="33.3105" id="Scooter" rx="1.25" ry="1.25" style="stroke:#181818;stroke-width:0.25;" width="83.8237" x="570.75" y="288.75"/><ellipse cx="598.4749" cy="296.75" fill="#ADD1B2" rx="5.5" ry="5.5" style="stroke:#181818;stroke-width:0.5;"/><path d="M599.8577,294.6875 Q599.9358,294.5781 600.0295,294.5234 Q600.1233,294.4688 600.2327,294.4688 Q600.4202,294.4688 600.5374,294.6016 Q600.6545,294.7266 600.6545,295.0313 L600.6545,295.7578 Q600.6545,296.0625 600.5374,296.1953 Q600.4202,296.3281 600.2327,296.3281 Q600.0608,296.3281 599.9592,296.2266 Q599.8577,296.1328 599.803,295.875 Q599.7795,295.6953 599.6858,295.6016 Q599.5217,295.4141 599.217,295.3047 Q598.9124,295.1953 598.5999,295.1953 Q598.217,295.1953 597.8967,295.3594 Q597.5842,295.5234 597.3342,295.8984 Q597.092,296.2734 597.092,296.7891 L597.092,297.3359 Q597.092,297.9531 597.5374,298.3672 Q597.9827,298.7734 598.7795,298.7734 Q599.2483,298.7734 599.5764,298.6484 Q599.7717,298.5703 599.9827,298.3516 Q600.1155,298.2188 600.1858,298.1797 Q600.2639,298.1406 600.3655,298.1406 Q600.5295,298.1406 600.6545,298.2734 Q600.7874,298.3984 600.7874,298.5703 Q600.7874,298.7422 600.6155,298.9453 Q600.3655,299.2344 599.967,299.3984 Q599.428,299.625 598.7795,299.625 Q598.0217,299.625 597.4202,299.3125 Q596.928,299.0625 596.5842,298.5313 Q596.2405,297.9922 596.2405,297.3516 L596.2405,296.7734 Q596.2405,296.1094 596.5452,295.5391 Q596.8577,294.9609 597.4045,294.6563 Q597.9514,294.3438 598.5686,294.3438 Q598.9358,294.3438 599.2561,294.4297 Q599.5842,294.5078 599.8577,294.6875 Z " fill="#000000"/><text fill="#000000" font-family="sans-serif" font-size="7" lengthAdjust="spacing" textLength="24.124" x="608.7249" y="299.6484">Scooter</text><line style="stroke:#181818;stroke-width:0.25;" x1="571.25" x2="654.0737" y1="304.75" y2="304.75"/><rect fill="none" height="3" style="stroke:#C82930;stroke-width:0.5;" width="3" x="574.75" y="310.6553"/><text fill="#000000" font-family="sans-serif" font-size="7" lengthAdjust="spacing" textLength="70.8237" x="580.75" y="314.3037">int espacioBajoAsiento</text><line style="stroke:#181818;stroke-width:0.25;" x1="571.25" x2="654.0737" y1="318.0605" y2="318.0605"/></g><!--class MotoDeportiva--><g id="elem_MotoDeportiva"><rect codeLine="100" fill="#F1F1F1" height="42.6211" id="MotoDeportiva" rx="1.25" ry="1.25" style="stroke:#181818;stroke-width:0.25;" width="93.1616" x="672.25" y="284.25"/><ellipse cx="693.9885" cy="292.25" fill="#ADD1B2" rx="5.5" ry="5.5" style="stroke:#181818;stroke-width:0.5;"/><path d="M695.3713,290.1875 Q695.4494,290.0781 695.5432,290.0234 Q695.6369,289.9688 695.7463,289.9688 Q695.9338,289.9688 696.051,290.1016 Q696.1682,290.2266 696.1682,290.5313 L696.1682,291.2578 Q696.1682,291.5625 696.051,291.6953 Q695.9338,291.8281 695.7463,291.8281 Q695.5744,291.8281 695.4729,291.7266 Q695.3713,291.6328 695.3166,291.375 Q695.2932,291.1953 695.1994,291.1016 Q695.0354,290.9141 694.7307,290.8047 Q694.426,290.6953 694.1135,290.6953 Q693.7307,290.6953 693.4104,290.8594 Q693.0979,291.0234 692.8479,291.3984 Q692.6057,291.7734 692.6057,292.2891 L692.6057,292.8359 Q692.6057,293.4531 693.051,293.8672 Q693.4963,294.2734 694.2932,294.2734 Q694.7619,294.2734 695.0901,294.1484 Q695.2854,294.0703 695.4963,293.8516 Q695.6291,293.7188 695.6994,293.6797 Q695.7776,293.6406 695.8791,293.6406 Q696.0432,293.6406 696.1682,293.7734 Q696.301,293.8984 696.301,294.0703 Q696.301,294.2422 696.1291,294.4453 Q695.8791,294.7344 695.4807,294.8984 Q694.9416,295.125 694.2932,295.125 Q693.5354,295.125 692.9338,294.8125 Q692.4416,294.5625 692.0979,294.0313 Q691.7541,293.4922 691.7541,292.8516 L691.7541,292.2734 Q691.7541,291.6094 692.0588,291.0391 Q692.3713,290.4609 692.9182,290.1563 Q693.4651,289.8438 694.0823,289.8438 Q694.4494,289.8438 694.7698,289.9297 Q695.0979,290.0078 695.3713,290.1875 Z " fill="#000000"/><text fill="#000000" font-family="sans-serif" font-size="7" lengthAdjust="spacing" textLength="45.5205" x="704.1526" y="295.1484">MotoDeportiva</text><line style="stroke:#181818;stroke-width:0.25;" x1="672.75" x2="764.9116" y1="300.25" y2="300.25"/><rect fill="none" height="3" style="stroke:#C82930;stroke-width:0.5;" width="3" x="676.25" y="306.1553"/><text fill="#000000" font-family="sans-serif" font-size="7" lengthAdjust="spacing" textLength="77.0444" x="682.25" y="309.8037">double velocidadMaxima</text><rect fill="none" height="3" style="stroke:#C82930;stroke-width:0.5;" width="3" x="676.25" y="315.4658"/><text fill="#000000" font-family="sans-serif" font-size="7" lengthAdjust="spacing" textLength="80.1616" x="682.25" y="319.1143">boolean tieneQuickShifter</text><line style="stroke:#181818;stroke-width:0.25;" x1="672.75" x2="764.9116" y1="322.8711" y2="322.8711"/></g><!--class Camion--><g id="elem_Camion"><rect codeLine="106" fill="#F1F1F1" height="61.2422" id="Camion" rx="1.25" ry="1.25" style="stroke:#181818;stroke-width:0.25;" width="92.3926" x="688.5" y="174"/><ellipse cx="720.511" cy="182" fill="#ADD1B2" rx="5.5" ry="5.5" style="stroke:#181818;stroke-width:0.5;"/><path d="M721.8938,179.9375 Q721.9719,179.8281 722.0657,179.7734 Q722.1594,179.7188 722.2688,179.7188 Q722.4563,179.7188 722.5735,179.8516 Q722.6907,179.9766 722.6907,180.2813 L722.6907,181.0078 Q722.6907,181.3125 722.5735,181.4453 Q722.4563,181.5781 722.2688,181.5781 Q722.0969,181.5781 721.9954,181.4766 Q721.8938,181.3828 721.8391,181.125 Q721.8157,180.9453 721.7219,180.8516 Q721.5579,180.6641 721.2532,180.5547 Q720.9485,180.4453 720.636,180.4453 Q720.2532,180.4453 719.9329,180.6094 Q719.6204,180.7734 719.3704,181.1484 Q719.1282,181.5234 719.1282,182.0391 L719.1282,182.5859 Q719.1282,183.2031 719.5735,183.6172 Q720.0188,184.0234 720.8157,184.0234 Q721.2844,184.0234 721.6125,183.8984 Q721.8079,183.8203 722.0188,183.6016 Q722.1516,183.4688 722.2219,183.4297 Q722.3,183.3906 722.4016,183.3906 Q722.5657,183.3906 722.6907,183.5234 Q722.8235,183.6484 722.8235,183.8203 Q722.8235,183.9922 722.6516,184.1953 Q722.4016,184.4844 722.0032,184.6484 Q721.4641,184.875 720.8157,184.875 Q720.0579,184.875 719.4563,184.5625 Q718.9641,184.3125 718.6204,183.7813 Q718.2766,183.2422 718.2766,182.6016 L718.2766,182.0234 Q718.2766,181.3594 718.5813,180.7891 Q718.8938,180.2109 719.4407,179.9063 Q719.9875,179.5938 720.6047,179.5938 Q720.9719,179.5938 721.2922,179.6797 Q721.6204,179.7578 721.8938,179.9375 Z " fill="#000000"/><text fill="#000000" font-family="sans-serif" font-size="7" lengthAdjust="spacing" textLength="24.1206" x="730.761" y="184.8984">Camion</text><line style="stroke:#181818;stroke-width:0.25;" x1="689" x2="780.3926" y1="190" y2="190"/><rect fill="none" height="3" style="stroke:#C82930;stroke-width:0.5;" width="3" x="692.5" y="195.9053"/><text fill="#000000" font-family="sans-serif" font-size="7" lengthAdjust="spacing" textLength="73.9443" x="698.5" y="199.5537">double capacidadCarga</text><rect fill="none" height="3" style="stroke:#C82930;stroke-width:0.5;" width="3" x="692.5" y="205.2158"/><text fill="#000000" font-family="sans-serif" font-size="7" lengthAdjust="spacing" textLength="36.5723" x="698.5" y="208.8643">int numEjes</text><rect fill="none" height="3" style="stroke:#C82930;stroke-width:0.5;" width="3" x="692.5" y="214.5264"/><text fill="#000000" font-family="sans-serif" font-size="7" lengthAdjust="spacing" textLength="79.3926" x="698.5" y="218.1748">double longitudRemolque</text><rect fill="none" height="3" style="stroke:#C82930;stroke-width:0.5;" width="3" x="692.5" y="223.8369"/><text fill="#000000" font-family="sans-serif" font-size="7" lengthAdjust="spacing" textLength="53.6963" x="698.5" y="227.4854">int potenciaMotor</text><line style="stroke:#181818;stroke-width:0.25;" x1="689" x2="780.3926" y1="231.2422" y2="231.2422"/></g><!--reverse link Vehiculo to Camion--><g id="link_Vehiculo_Camion"><path codeLine="113" d="M528.549,83.1996 C570.219,100.9646 626.95,127.14 679.25,160 C685.915,164.185 692.715,169.03 699.165,173.94 " fill="none" id="Vehiculo-backto-Camion" style="stroke:#181818;stroke-width:0.5;"/><polygon fill="none" points="520.27,79.67,527.3725,85.9592,529.7255,80.4399,520.27,79.67" style="stroke:#181818;stroke-width:0.5;"/></g><!--reverse link Vehiculo to Moto--><g id="link_Vehiculo_Moto"><path codeLine="115" d="M526.4554,113.2134 C547.1854,135.0234 565.465,154.255 584.035,173.79 " fill="none" id="Vehiculo-backto-Moto" style="stroke:#181818;stroke-width:0.5;"/><polygon fill="none" points="520.255,106.69,524.2809,115.2802,528.6299,111.1466,520.255,106.69" style="stroke:#181818;stroke-width:0.5;"/></g><!--reverse link Moto to Scooter--><g id="link_Moto_Scooter"><path codeLine="116" d="M612.75,244.005 C612.75,261.61 612.75,274.17 612.75,288.675 " fill="none" id="Moto-backto-Scooter" style="stroke:#181818;stroke-width:0.5;"/><polygon fill="none" points="612.75,235.005,609.75,244.005,615.75,244.005,612.75,235.005" style="stroke:#181818;stroke-width:0.5;"/></g><!--reverse link Moto to MotoDeportiva--><g id="link_Moto_MotoDeportiva"><path codeLine="117" d="M651.102,241.1805 C667.932,257.0555 681.63,269.98 696.72,284.215 " fill="none" id="Moto-backto-MotoDeportiva" style="stroke:#181818;stroke-width:0.5;"/><polygon fill="none" points="644.555,235.005,649.0435,243.3628,653.1605,238.9982,644.555,235.005" style="stroke:#181818;stroke-width:0.5;"/></g><!--reverse link Coche to Sedan--><g id="link_Coche_Sedan"><path codeLine="119" d="M426.431,239.8148 C418.626,244.6998 418.11,244.765 410.25,249 C380.55,264.99 371.45,265.52 340.75,279.5 C337.4,281.025 333.94,282.62 330.47,284.23 " fill="none" id="Coche-backto-Sedan" style="stroke:#181818;stroke-width:0.5;"/><polygon fill="none" points="434.06,235.04,424.8394,237.2718,428.0226,242.3578,434.06,235.04" style="stroke:#181818;stroke-width:0.5;"/></g><!--reverse link Coche to SUV--><g id="link_Coche_SUV"><path codeLine="120" d="M448.2799,241.9983 C435.4199,257.8733 425.615,269.98 414.085,284.215 " fill="none" id="Coche-backto-SUV" style="stroke:#181818;stroke-width:0.5;"/><polygon fill="none" points="453.945,235.005,445.9488,240.1099,450.611,243.8867,453.945,235.005" style="stroke:#181818;stroke-width:0.5;"/></g><!--reverse link Coche to Deportivo--><g id="link_Coche_Deportivo"><path codeLine="121" d="M489.6469,243.6371 C493.8219,257.7871 496.205,265.865 500.2,279.41 " fill="none" id="Coche-backto-Deportivo" style="stroke:#181818;stroke-width:0.5;"/><polygon fill="none" points="487.1,235.005,486.7696,244.4861,492.5243,242.7881,487.1,235.005" style="stroke:#181818;stroke-width:0.5;"/></g><!--reverse link Vehiculo to Coche--><g id="link_Vehiculo_Coche"><path codeLine="123" d="M478.25,129.665 C478.25,147.96 478.25,158.415 478.25,173.92 " fill="none" id="Vehiculo-backto-Coche" style="stroke:#181818;stroke-width:0.5;"/><polygon fill="none" points="478.25,120.665,475.25,129.665,481.25,129.665,478.25,120.665" style="stroke:#181818;stroke-width:0.5;"/></g><!--link Vehiculo to Valorable--><g id="link_Vehiculo_Valorable"><path codeLine="125" d="M436.23,80.06 C394.3,98.18 328.54,128.2 274.75,160 C260.68,168.32 252.9467,173.5455 241.3217,182.2755 " fill="none" id="Vehiculo-to-Valorable" style="stroke:#181818;stroke-width:0.5;stroke-dasharray:7.0,7.0;"/><polygon fill="none" points="234.125,187.68,243.1231,184.6744,239.5202,179.8767,234.125,187.68" style="stroke:#181818;stroke-width:0.5;"/></g><!--reverse link Vehiculo to Persona--><g id="link_Vehiculo_Persona"><path codeLine="127" d="M431.9704,110.8287 C415.7354,127.7837 401.345,142.81 385.085,159.79 " fill="none" id="Vehiculo-backto-Persona" style="stroke:#181818;stroke-width:0.5;"/><polygon fill="none" points="436.12,106.495,432.6006,107.2786,431.9704,110.8287,435.4897,110.045,436.12,106.495" style="stroke:#181818;stroke-width:0.5;"/><text fill="#000000" font-family="sans-serif" font-size="6.5" lengthAdjust="spacing" textLength="30.7131" x="407.25" y="143.0142">propietario</text></g><!--SRC=[PLJBZjiw3DtxAxHhYsAAAT1LqRc0nt5R0tdTE0cwPMncHbDPJ2Lvq3RjlvUI7oCdAvj757buIEgLkBkx4xbk6pHGIT9eFP8W8oAt3ceIvsHMbElLihYVvya-NywAsIhvctG-MtcYZ9f3QvqyA6JdBscvcXVBb6_bPJvFlXRt6tyZd-VPTbDaqLrEwNFw3FayNMxpJPfiDsd9N_7XsuVHSIcVKMMaZsJSERbFInzbaS-ALRBUv8jYjvZmuRZQDj9ow7EoI9UxT9wak-rgaMwBBFMkhtoHXNPeZl3Rrokx_mh57XGPw4fvMrFh_ofGLQl0pF1ai991gDTlna0YKs1HhD5OqX3qgnYn8t9EXBWfdP7wGMWMos04m0cLaZNP2Akrz1Qp4g0bBJbZ8r4xykYScCyC78eZLe-GGTrMieOw0wFH9Upoza2a4BHu1exCl9S5qsNS1noAIJcmxUvSrm87wxWx3iGU7oNxKoXhW4LNttWM5zW0Vts62MQgYKqrAefB_0m7lXMK7U3lKb63dEyfoDNt8dGWNEt74yF70uFS9qCdYGuC-_cg-wIoEHcMqR1qP3iz-fD1aer4-q3NQcHKFMBKryu-3qHvxjOj6WUXXPSRuQRsSAc24uIsBK0X3r-eODm8r_-yC2dRWuzaHNtDfyGQTCUdLmcjZqvXn2KPVn8laT2HuNFqSNRxBiemFoF9rV5e2Eee0oZN6fXB7kQozSqSe_2MS5JvJ1D6l5kgVsDkuVtjxQ33YHngtgbi7oTsFEsue9hMajjxsOy5EHA_X1qaUL4Yd8oDgQIIkZPGmvWDBLqLaTfnjowUZz2yo8wageY9cvTSlUBty4H3lD7PinfKWOagt0Ngf-2dRE1AWlzRMNql7-MHSrrD9JIUOZIM7H377nl8Y_u0qS3cJsWZFqNwGRgstc13waUBbztn5GG2uyf_-dDpqsUyHBrp4ZeHp5wg29deaIJTE7U-Vf8dm6uVc-DiNJ7nFX7uxjsV_rxUykY0s7buA3vEduha7m00]--></g></svg>